<svg width="183" height="50" viewBox="0 0 183 50" fill="none" xmlns="http://www.w3.org/2000/svg">
<path fill-rule="evenodd" clip-rule="evenodd" d="M8.89043 12.1431C11.6366 12.1431 14.448 12.7829 16.4885 13.848L16.8041 14.0197L14.1582 16.6129C12.605 16.0824 10.8903 15.8046 9.21601 15.8265C6.14401 15.8265 4.19222 16.7122 4.19222 18.8372C4.19222 20.499 5.58742 21.4358 7.51092 22.2033L7.98226 22.3846C8.06236 22.4143 8.1432 22.4439 8.22471 22.4733L8.97515 22.7344L11.3151 23.5079L12.0132 23.7509L12.4763 23.9205C12.5532 23.9494 12.6299 23.9785 12.7064 24.008L13.1629 24.189C13.2385 24.2199 13.3138 24.2512 13.3889 24.2829L13.835 24.4779C16.4862 25.6787 18.6477 27.4554 18.6477 30.8793C18.6477 36.0858 14.1307 37.8926 9.07083 37.8564C5.83585 37.8564 2.89541 37.15 0.468413 35.8893L0.108242 35.696L2.79023 33.0675C4.7635 33.8311 6.80549 34.173 8.78219 34.173C12.0346 34.173 14.4554 33.4295 14.4554 31.0923C14.4554 29.3325 13.096 28.3322 11.2109 27.5378L10.7077 27.3349L10.184 27.1391L9.64305 26.9483L7.37226 26.1912L6.79428 25.9924C6.69807 25.9587 6.60196 25.9246 6.50601 25.8902L5.93297 25.6784C2.79857 24.4845 0 22.7728 0 18.908C0 14.3388 4.12006 12.1431 8.89043 12.1431ZM27.1907 12.6039V22.9453H29.2464L39.8481 12.6039H44.9458L32.6234 24.6806L45.5961 37.3962H40.4984L29.3186 26.6641H27.1907V37.3962H23.0706V12.6039H27.1907ZM59.5539 12.6039C64.8302 12.6039 68.2269 14.6582 68.2269 18.8721C68.2269 21.8828 66.3834 23.6534 64.2512 24.3269L64.6044 24.4335C66.7986 25.1443 69.2381 26.8621 69.2381 30.5252C69.2381 34.916 65.8333 36.6368 62.432 37.182L61.9886 37.2465L61.547 37.2985L61.1088 37.3386C61.0361 37.3443 60.9637 37.3496 60.8915 37.3544L60.4615 37.3781C60.3904 37.3812 60.3197 37.3839 60.2492 37.3862L59.8313 37.3951L48.856 37.3962V12.6039H59.5539ZM147.806 12.6035L158.467 37.3966H154.13L151.89 32.0478H139.205L136.963 37.3966H132.592L143.289 12.6035H147.806ZM118.909 12.6035V33.6416H131.073L129.455 37.3966H114.788V12.6035H118.909ZM172.519 12.6039C177.795 12.6039 181.192 14.6582 181.192 18.8721C181.192 21.8828 179.35 23.6534 177.217 24.3269L177.57 24.4335C179.765 25.1443 182.203 26.8621 182.203 30.5252C182.203 34.8205 178.945 36.5607 175.619 37.1447L175.176 37.2159C175.102 37.2266 175.028 37.2368 174.954 37.2465L174.512 37.2985L174.074 37.3386C174.001 37.3443 173.929 37.3496 173.857 37.3544L173.427 37.3781C173.356 37.3812 173.285 37.3839 173.215 37.3862L172.797 37.3951L161.821 37.3962V12.6039H172.519ZM59.8064 26.3105H52.976V33.8542H59.2283L59.7935 33.8491L60.1701 33.8386L60.5448 33.8206C60.607 33.8169 60.669 33.8128 60.7308 33.8083L61.0993 33.7763C61.2211 33.7639 61.342 33.7496 61.4615 33.7332L61.8158 33.6775C63.6231 33.3543 65.0467 32.4667 65.0467 30.0992C65.0467 27.2652 62.8523 26.5032 60.7896 26.3457L60.4566 26.3252L60.1282 26.314L59.8064 26.3105ZM172.772 26.3105H165.941V33.8542H172.194L172.759 33.8491L173.135 33.8386L173.51 33.8206C173.572 33.8169 173.634 33.8128 173.696 33.8083L174.065 33.7763C174.186 33.7639 174.307 33.7496 174.427 33.7332L174.781 33.6775C176.588 33.3543 178.012 32.4667 178.012 30.0992C178.012 27.2652 175.818 26.5032 173.755 26.3457L173.422 26.3252L173.093 26.314L172.772 26.3105ZM145.529 16.5345C145.478 16.7067 145.429 16.8615 145.382 17.0038L145.248 17.3985L145.059 17.9161L140.614 28.5059H150.444L145.999 17.9161L145.81 17.3985C145.789 17.3372 145.767 17.2742 145.744 17.2086L145.605 16.7804C145.58 16.7023 145.555 16.6206 145.529 16.5345ZM59.1192 16.1097H52.976V22.8746L59.6982 22.91C62.0829 22.91 64.0347 21.919 64.0347 19.5103C64.0347 17.0308 62.1551 16.1097 59.1192 16.1097ZM172.085 16.1097H165.941V22.8746L172.663 22.91C175.048 22.91 177 21.919 177 19.5103C177 17.0308 175.12 16.1097 172.085 16.1097Z" fill="black"/>
<path fill-rule="evenodd" clip-rule="evenodd" d="M90.0502 19.2313L101.824 30.7708L105.749 26.924L93.9744 15.3854L105.749 3.84677L101.824 0L90.0502 11.5386L86.126 15.3854L90.0502 19.2313Z" fill="black"/>
<path fill-rule="evenodd" clip-rule="evenodd" d="M90.0523 34.6145L78.278 46.154L82.203 49.9999L93.9764 38.4613L97.9015 34.6145L93.9764 30.7686L82.203 19.23L78.278 23.0759L90.0523 34.6145Z" fill="black"/>
</svg>
